<svg viewBox="0 0 400 300" xmlns="http://www.w3.org/2000/svg">
  <!-- Background -->
  <rect width="400" height="300" fill="#1e293b"/>
  
  <!-- Main Container -->
  <rect x="50" y="60" width="300" height="180" rx="12" fill="#334155" stroke="#475569" stroke-width="2"/>
  
  <!-- Tile Grid -->
  <!-- Row 1 -->
  <rect x="80" y="100" width="40" height="40" rx="2" fill="#f8fafc" stroke="#cbd5e1" stroke-width="1"/>
  <rect x="125" y="100" width="40" height="40" rx="2" fill="#f8fafc" stroke="#cbd5e1" stroke-width="1"/>
  <rect x="170" y="100" width="40" height="40" rx="2" fill="#f8fafc" stroke="#cbd5e1" stroke-width="1"/>
  <rect x="215" y="100" width="40" height="40" rx="2" fill="#f8fafc" stroke="#cbd5e1" stroke-width="1"/>
  
  <!-- Row 2 -->
  <rect x="80" y="145" width="40" height="40" rx="2" fill="#f8fafc" stroke="#cbd5e1" stroke-width="1"/>
  <rect x="125" y="145" width="40" height="40" rx="2" fill="#0ea5e9" stroke="#0284c7" stroke-width="2"/>
  <rect x="170" y="145" width="40" height="40" rx="2" fill="#f8fafc" stroke="#cbd5e1" stroke-width="1"/>
  <rect x="215" y="145" width="40" height="40" rx="2" fill="#f8fafc" stroke="#cbd5e1" stroke-width="1"/>
  
  <!-- Row 3 -->
  <rect x="80" y="190" width="40" height="40" rx="2" fill="#f8fafc" stroke="#cbd5e1" stroke-width="1"/>
  <rect x="125" y="190" width="40" height="40" rx="2" fill="#f8fafc" stroke="#cbd5e1" stroke-width="1"/>
  <rect x="170" y="190" width="40" height="40" rx="2" fill="#f8fafc" stroke="#cbd5e1" stroke-width="1"/>
  <rect x="215" y="190" width="40" height="40" rx="2" fill="#f8fafc" stroke="#cbd5e1" stroke-width="1"/>
  
  <!-- Trowel -->
  <rect x="280" y="120" width="25" height="6" rx="2" fill="#64748b"/>
  <rect x="290" y="126" width="4" height="20" rx="1" fill="#8b4513"/>
  
  <!-- Level Tool -->
  <rect x="270" y="170" width="50" height="6" rx="3" fill="#fbbf24"/>
  <circle cx="295" cy="173" r="2" fill="#10b981"/>
  
  <!-- Title -->
  <text x="200" y="35" fill="#e2e8f0" font-size="24" font-weight="bold" text-anchor="middle">FAYANS DÖŞEME</text>
  <text x="200" y="50" fill="#94a3b8" font-size="12" text-anchor="middle">Profesyonel Fayans İşleri</text>
</svg>
